<svg height="200px" width="200px" version="1.1" id="_x34_" xmlns="http://www.w3.org/2000/svg" xmlns:xlink="http://www.w3.org/1999/xlink" viewBox="0 0 512 512" xml:space="preserve" fill="#000000"><g id="SVGRepo_bgCarrier" stroke-width="0"></g><g id="SVGRepo_tracerCarrier" stroke-linecap="round" stroke-linejoin="round"></g><g id="SVGRepo_iconCarrier"> <g> <g> <path style="fill:#BF974D;" d="M512,256c0,28.599-4.715,56.039-13.372,81.701c-4.483,13.449-10.126,26.435-16.695,38.802 c-0.851,1.623-1.778,3.246-2.628,4.87c-5.333,9.43-11.285,18.551-17.778,27.285c-1.16,1.546-2.319,3.015-3.478,4.561 C411.208,473.353,338.087,512,256,512c-5.565,0-11.053-0.154-16.464-0.541c-7.729-0.464-15.382-1.314-22.879-2.551 c-7.034-1.005-13.99-2.396-20.87-4.02l-80.85-35.246C66.86,437.875,30.145,390.261,12.213,334.3 c-3.246-10.126-5.874-20.483-7.884-31.072c-0.309-1.778-0.618-3.556-0.927-5.333c-0.309-1.855-0.618-3.633-0.85-5.411 C0.85,280.58,0,268.367,0,256c0-25.662,3.787-50.473,10.821-73.816c4.87-16.387,11.44-32,19.324-46.763 c9.276-17.469,20.56-33.623,33.469-48.309c8.657-9.817,18.009-19.015,28.058-27.362c26.435-22.184,57.353-39.111,91.208-49.16 c13.836-4.096,28.135-7.111,42.821-8.811C235.595,0.618,245.72,0,256,0c27.053,0,53.025,4.174,77.527,11.981 c2.396,0.696,4.715,1.546,7.034,2.319c12.367,4.328,24.348,9.585,35.788,15.691c1.623,0.927,3.324,1.778,4.947,2.782 c33.7,18.86,62.686,45.218,84.792,76.831c4.02,5.72,7.729,11.672,11.285,17.778c1.005,1.7,2.01,3.478,2.937,5.179 c1.778,3.246,3.478,6.493,5.101,9.817c1.546,3.092,3.092,6.261,4.406,9.43c0.232,0.232,0.309,0.464,0.387,0.773 c1.004,2.087,1.855,4.252,2.705,6.415c0.927,2.01,1.7,4.02,2.474,6.106c0.541,1.314,1.005,2.628,1.391,3.942 c0.618,1.314,1.082,2.706,1.546,4.097c0.232,0.773,0.464,1.546,0.773,2.319c0.309,1.16,0.696,2.319,1.082,3.401v0.077 C507.826,203.285,512,229.102,512,256z"></path> <path style="opacity:0.1;fill:#FFFFFF;" d="M301.759,140.367c-6.493,44.522,9.585,92.754,46.299,137.739 c6.879,8.425,14.299,16.618,22.338,24.348c29.913,29.295,67.246,54.184,109.449,73.044c0.696,0.386,1.391,0.696,2.087,1.005 c-0.851,1.623-1.778,3.246-2.628,4.87c-5.333,9.43-11.285,18.551-17.778,27.285c-1.16-0.541-2.396-1.082-3.556-1.7 c-42.898-20.02-81.082-45.836-112.309-76.058c-9.584-9.275-18.551-18.937-26.744-28.986 c-42.512-52.019-61.449-108.831-55.034-162.55c0-0.309,0.077-0.618,0.077-0.927c-3.942,0-7.807,0.077-11.672,0.232 c-16.077,0.309-32,1.16-47.691,2.473v0.077c-3.865,31.536-5.874,64.232-5.874,97.546c0,66.551,7.961,130.551,23.111,187.826 c7.807,29.836,17.546,57.894,29.14,83.478c0.077,0.155,0.154,0.387,0.232,0.541c-1.7-0.077-3.401-0.232-5.024-0.464 c-2.551-0.154-5.024-0.386-7.498-0.695c-10.589-1.237-21.024-3.015-31.15-5.488c-7.575-19.091-14.3-39.266-20.097-60.29 c-17.236-62.377-26.357-132.329-26.357-204.908c0-31.768,1.778-63.072,5.179-93.449c-3.942,0.541-7.884,1.082-11.826,1.701 c-9.507,1.391-18.937,3.015-28.135,4.792c-1.778,45.295-20.87,91.749-56.116,135.034c-13.604,16.541-29.063,32.155-46.222,46.532 c-0.773-2.474-1.546-4.947-2.164-7.42c-3.324-11.13-5.797-22.648-7.497-34.319c9.662-9.121,18.55-18.706,26.666-28.599 c27.285-33.391,43.131-68.56,46.918-102.648c-4.019,1.005-8.038,2.087-12.058,3.324c-18.551,5.024-36.329,10.899-53.256,17.546 c0.386-1.314,0.773-2.628,1.314-3.942c4.637-14.918,10.667-29.295,18.01-42.821c10.898-3.556,22.106-6.802,33.546-9.739 c3.71-1.005,7.575-1.932,11.363-2.86c-0.077-0.541-0.155-1.16-0.31-1.701c-0.773-4.56-1.855-9.043-3.169-13.527 c-2.087-7.034-4.792-13.913-7.962-20.483c6.184-7.034,12.754-13.759,19.71-20.097c2.706-2.473,5.488-4.869,8.348-7.266 c6.725,11.671,12.135,24.116,16,37.256c1.701,5.488,3.015,11.208,4.02,16.85c0.077,0.387,0.154,0.696,0.232,1.082 c11.904-2.241,23.884-4.174,36.097-5.797c3.865-0.541,7.884-1.082,11.826-1.546c0-0.077,0-0.232,0.077-0.309 c5.565-33.932,13.218-66.319,22.956-96.696c10.049-2.937,20.328-5.333,30.764-7.034c4.019-0.696,8.038-1.314,12.058-1.778 c-11.517,31.536-20.638,65.855-27.053,102.106c16.85-1.236,33.932-1.932,51.246-2.164c3.246,0,6.57-0.077,9.893-0.077h1.546 c12.522-34.242,35.942-63.614,67.478-86.415c12.367,4.328,24.348,9.585,35.788,15.691c1.623,0.927,3.324,1.778,4.947,2.782 c-30.763,17.391-54.261,40.889-67.865,69.025c52.329,2.55,102.648,9.893,149.102,21.72c5.024,1.159,9.971,2.473,14.84,3.865 c1.005,1.7,2.01,3.478,2.937,5.179c1.778,3.246,3.478,6.493,5.101,9.817c1.546,3.092,3.092,6.261,4.406,9.43 c0.232,0.232,0.309,0.464,0.387,0.773c1.004,2.087,1.855,4.252,2.705,6.415c0.927,2.01,1.7,4.02,2.474,6.106 c0.541,1.314,1.005,2.628,1.391,3.942c0.618,1.314,1.082,2.706,1.546,4.097c-0.077,0-0.077,0-0.155-0.077 c-15.15-5.101-30.918-9.739-47.15-13.681c-46.3-11.517-96.696-18.473-149.102-20.405 C301.836,139.44,301.759,139.904,301.759,140.367z"></path> <path style="fill:#836D54;" d="M238.995,510.145c-0.155-0.232-0.232-0.464-0.309-0.695 c-10.744-23.807-19.865-49.778-27.362-77.295c-15.923-58.435-24.348-124.135-24.348-192.464c0-33.391,2.01-66.087,5.952-97.623 c1.546-12.986,3.478-25.739,5.72-38.261c6.416-35.942,15.382-69.952,26.744-101.178c0.077-0.309,0.232-0.541,0.309-0.85 c-14.686,1.7-28.986,4.715-42.821,8.811c-9.739,30.454-17.469,62.995-23.034,97.005c0,0.232-0.077,0.386-0.077,0.618 c-2.087,12.444-3.788,25.121-5.257,37.952c0,0.309-0.077,0.541-0.077,0.85c-3.324,30.145-5.102,61.14-5.102,92.676 c0,73.971,9.507,145.237,27.439,208.541c5.488,19.711,11.826,38.647,19.015,56.657c6.879,1.623,13.836,3.015,20.87,4.02 c7.497,1.236,15.149,2.087,22.879,2.551C239.304,510.995,239.15,510.609,238.995,510.145z"></path> <path style="fill:#836D54;" d="M476.908,380.29c-42.976-18.087-81.159-42.28-112.077-71.034 c-10.358-9.585-19.865-19.71-28.444-30.299c-37.101-45.449-53.179-94.145-46.222-139.13c0.928-5.797,2.164-11.517,3.865-17.16 c2.009-6.879,4.637-13.604,7.729-20.019c14.454-30.068,40.425-54.879,74.589-72.657c-11.44-6.106-23.42-11.362-35.788-15.691 c-2.319-0.773-4.638-1.623-7.034-2.319c-33.7,23.034-58.667,53.256-71.884,88.812c-0.077,0.309-0.232,0.541-0.31,0.85 c-1.236,3.401-2.396,6.879-3.401,10.357c-2.628,8.734-4.483,17.623-5.642,26.667c0,0.232-0.077,0.464-0.077,0.696 c-6.725,54.029,12.29,111.072,54.956,163.401c9.817,12.058,20.638,23.575,32.464,34.396 c32.077,29.759,71.034,55.034,114.628,74.358c1.237,0.618,2.551,1.16,3.787,1.701c1.16-1.546,2.319-3.015,3.478-4.561 c6.492-8.734,12.444-17.855,17.778-27.285C478.532,381.063,477.681,380.676,476.908,380.29z"></path> <path style="fill:#836D54;" d="M112,114.937c-1.159-6.029-2.55-12.058-4.328-18.009c-3.169-10.744-7.343-21.025-12.599-30.841 c-1.004-2.164-2.164-4.251-3.401-6.338c-10.048,8.348-19.401,17.546-28.058,27.362c3.246,6.57,5.874,13.372,7.961,20.483 c1.469,5.024,2.705,10.048,3.556,15.149c0.154,0.696,0.232,1.314,0.309,2.01c1.855,11.98,2.087,24.193,0.696,36.483 c-0.077,0.851-0.155,1.623-0.309,2.473c-4.251,33.391-19.942,67.633-46.531,100.174c-8.116,9.971-17.082,19.478-26.667,28.599 c0.232,1.778,0.464,3.555,0.773,5.411c0.309,1.778,0.618,3.555,0.927,5.333c2.01,10.589,4.638,20.947,7.884,31.072 c3.246-2.705,6.416-5.488,9.584-8.348c13.372-11.981,25.662-24.812,36.638-38.261c35.246-43.208,54.416-89.662,56.193-135.034 C115.092,139.981,114.242,127.305,112,114.937z"></path> <path style="fill:#836D54;" d="M499.092,175.459c-0.309-0.773-0.618-1.623-0.927-2.396c-0.386-1.391-0.85-2.705-1.391-4.019 c-0.386-1.314-0.85-2.628-1.391-3.942c-0.773-2.087-1.546-4.096-2.474-6.106c-0.85-2.164-1.701-4.328-2.705-6.415 c-0.077-0.309-0.155-0.541-0.387-0.773c-1.314-3.169-2.86-6.338-4.406-9.43c-1.623-3.324-3.324-6.57-5.101-9.817 c-6.184-1.855-12.522-3.71-18.86-5.333c-49.469-13.449-103.498-21.797-159.691-24.58c-13.372-0.618-26.822-1.005-40.426-1.005 h-1.546c-20.638,0-41.043,0.773-61.14,2.164c-9.043,0.696-18.087,1.469-26.976,2.551c-3.942,0.309-7.884,0.773-11.826,1.237 c-12.29,1.468-24.425,3.246-36.406,5.333c-3.787,0.618-7.652,1.314-11.44,2.01c-8.657,1.623-17.159,3.324-25.507,5.256 c-3.865,0.773-7.575,1.623-11.362,2.551c-15.459,3.787-30.454,7.962-44.986,12.676c-7.884,14.763-14.454,30.377-19.324,46.763 c4.329-1.7,8.657-3.324,13.063-4.87c16.695-6.106,34.087-11.439,52.251-16.077c12.522-3.169,25.352-6.029,38.493-8.58 c12.985-2.473,26.357-4.637,39.884-6.492c12.599-1.701,25.43-3.092,38.416-4.097c3.865-0.309,7.807-0.618,11.672-0.85 c15.691-1.082,31.613-1.701,47.613-1.855c2.473-0.077,5.024-0.077,7.575-0.077c1.392,0,2.706,0,4.097,0.077 c8.812,0,17.546,0.232,26.28,0.464c3.865,0.154,7.73,0.309,11.594,0.541c52.251,2.705,102.261,10.357,147.942,22.57 c17.469,4.715,34.319,10.048,50.474,16v-0.077C499.788,177.778,499.401,176.619,499.092,175.459z"></path> </g> <path style="opacity:0.07;fill:#040000;" d="M512,256c0,28.599-4.715,56.039-13.372,81.701 c-5.256,12.985-11.517,25.662-18.783,37.797c-0.927,1.623-1.932,3.246-2.937,4.792c-5.72,9.275-11.981,18.164-18.937,26.667 c-1.159,1.546-2.396,3.015-3.71,4.56c-22.338,26.744-50.242,49.624-83.014,66.86c-8.503,4.483-17.16,8.502-25.971,11.981 c-3.556,1.469-7.189,2.783-10.821,4.097c-4.328,1.546-8.734,2.937-13.218,4.328c-3.787,1.082-7.575,2.164-11.439,3.091 c-19.478,4.87-39.189,7.653-58.821,8.193c-1.546,0.077-3.169,0.077-4.792,0.077c-2.396,0.077-4.792,0.077-7.188,0 c-7.42-0.077-14.918-0.464-22.338-1.236c-7.034-1.005-13.99-2.396-20.87-4.02l-80.85-35.246 c21.179-5.797,41.894-12.908,61.836-21.411c3.633-1.469,7.188-3.014,10.667-4.56c8.116-3.633,16.077-7.498,23.884-11.517 c3.555-1.855,7.034-3.71,10.512-5.565c43.672-23.884,83.324-54.029,117.797-89.43c2.01-2.01,4.02-4.096,6.029-6.261 c6.57-7.034,12.986-14.222,19.169-21.642c1.932-2.241,3.787-4.483,5.565-6.802c33.546-41.507,60.521-88.502,79.304-139.517 c0.541-1.16,0.927-2.319,1.314-3.556c3.865-10.589,7.343-21.256,10.435-32.154c0.386-1.237,0.696-2.473,1.082-3.71 c1.237-4.638,2.396-9.275,3.555-13.913c4.02,5.72,7.729,11.672,11.285,17.778c1.005,1.7,2.01,3.478,2.937,5.179 c1.778,3.246,3.478,6.493,5.101,9.817c1.546,3.092,3.092,6.261,4.406,9.43c0.232,0.232,0.309,0.464,0.387,0.773 c1.004,2.087,1.855,4.252,2.705,6.415c0.927,2.01,1.7,4.02,2.474,6.106c0.541,1.314,1.005,2.628,1.391,3.942 c0.618,1.314,1.082,2.706,1.546,4.097c0.232,0.773,0.464,1.546,0.773,2.319c0.309,1.16,0.696,2.319,1.082,3.401v0.077 C507.826,203.285,512,229.102,512,256z"></path> </g> </g></svg>