<svg version="1.1" id="Capa_1" xmlns="http://www.w3.org/2000/svg" xmlns:xlink="http://www.w3.org/1999/xlink" viewBox="0 0 444.627 444.627" xml:space="preserve" fill="#000000"><g id="SVGRepo_bgCarrier" stroke-width="0"></g><g id="SVGRepo_tracerCarrier" stroke-linecap="round" stroke-linejoin="round"></g><g id="SVGRepo_iconCarrier"> <g> <path style="fill:#EAEBED;" d="M443.338,222.312c0-114.753-93.026-207.778-207.777-207.778 c-114.758,0-207.781,93.025-207.781,207.778c0,114.755,93.022,207.78,207.781,207.78 C350.312,430.092,443.338,337.067,443.338,222.312z"></path> <path style="fill:#7C848C;" d="M35.636,279.097c5.017,17.705,12.335,34.442,21.591,49.881h356.666 c9.257-15.44,16.572-32.176,21.589-49.881H35.636z"></path> <ellipse style="opacity:0.56;fill:#B8B9BB;" cx="319.78" cy="352.848" rx="75.983" ry="19.123"></ellipse> <g> <g> <path d="M279.964,324.263c0,15.787,36.86,28.585,82.33,28.585c45.471,0,82.332-12.798,82.332-28.585 c0-15.784-36.862-28.582-82.332-28.582C316.823,295.681,279.964,308.479,279.964,324.263z"></path> <rect x="279.964" y="298.6" width="164.663" height="25.663"></rect> <ellipse style="fill:#414141;" cx="362.295" cy="300.064" rx="82.331" ry="28.583"></ellipse> </g> </g> <ellipse transform="matrix(0.8951 -0.4459 0.4459 0.8951 -112.4947 96.9742)" style="opacity:0.56;fill:#8B8C8D;" cx="149.823" cy="287.539" rx="99.889" ry="15.572"></ellipse> <path d="M272.739,17.994c-39.801,104.798-60.36,144.002-80.578,158.282c-38.876,27.453-77.559,44.19-103.277,54.389 c-11.342,4.498-21.964,8.403-31.332,11.845c-7.695,2.827-14.64,5.38-20.683,7.776c-14.631,5.802-24.393,10.769-27.824,17.59 c-6.271,12.449-15.017,40.02-3.209,55.265c6.909,8.915,18.958,11.58,35.811,7.91c10.029-2.18,23.927-6.743,40.198-13.195 c55.859-22.152,145.646-69.09,160.95-99.469c4.662-9.259,26.912-75.148,65.301-190.49 C295.116,21.639,282.368,19.785,272.739,17.994z"></path> <path style="fill:#D9D9D9;" d="M46.408,246.458c0,0,9.418,5.693,11.387,8.683c9.772,14.845,11.783,45.258,2.688,70.838 c0,0,83.838-21.88,160.215-83.509c0,0,0.091-40.093-21.93-54.973c-2.896-1.957-12.506-6.253-12.506-6.253h-1.705 C184.556,181.244,57.777,241.342,46.408,246.458z"></path> <path style="opacity:0.14;fill:#1C1C1B;" d="M1.091,312.976c3.197,2.932,2.433,7.18,4.744,10.165 c6.909,8.915,18.958,11.58,35.811,7.91c5.304-1.153,11.698-2.978,18.945-5.391c-0.037,0.106-0.071,0.214-0.109,0.319 c0,0,83.838-21.88,160.215-83.509c0,0,0-0.059-0.001-0.161c10.603-8.54,18.459-16.7,22.098-23.923 c4.662-9.259,26.912-75.147,65.301-190.49c-5.203-2.509-10.369-4.31-15.312-5.683C265.98,96.757,252.909,264.724,1.091,312.976z"></path> </g> </g></svg>