<svg height="200px" width="200px" version="1.1" id="Layer_1" xmlns="http://www.w3.org/2000/svg" xmlns:xlink="http://www.w3.org/1999/xlink" viewBox="0 0 512 512" xml:space="preserve" fill="#000000"><g id="SVGRepo_bgCarrier" stroke-width="0"></g><g id="SVGRepo_tracerCarrier" stroke-linecap="round" stroke-linejoin="round"></g><g id="SVGRepo_iconCarrier"> <path style="fill:#5AC2AD;" d="M511.989,255.252C511.564,113.531,396.556,0.001,256,0.001c-0.005,0-0.013,0-0.018,0 C114.842,0.012-0.367,114.412,0.009,256.748c0.405,140.789,114.563,255.24,255.973,255.251c0.005,0,0.013,0,0.018,0 C395.624,512.001,512.244,399.309,511.989,255.252z"></path> <g> <path style="fill:#1DA49C;" d="M256,0.001c-0.005,0-0.013,0-0.018,0v511.998c0.005,0,0.013,0,0.018,0 c141.385,0,256-114.615,256-256S397.385,0.001,256,0.001z"></path> <path style="fill:#1DA49C;" d="M0,256.001c0,68.212,26.684,130.188,70.177,176.074c35.451-49.648,56.332-110.416,56.332-176.074 S105.628,129.577,70.177,79.927C26.684,125.811,0,187.788,0,256.001z"></path> </g> <path style="fill:#198F88;" d="M511.998,256.001c0,68.212-26.684,130.188-70.177,176.074 c-35.451-49.648-56.332-110.416-56.332-176.074s20.881-126.424,56.332-176.074C485.314,125.811,511.998,187.788,511.998,256.001z"></path> </g></svg>